<svg version="1.1" viewBox="0.0 0.0 377.9527559055118 377.9527559055118" fill="none" stroke="none" stroke-linecap="square" stroke-miterlimit="10" xmlns:xlink="http://www.w3.org/1999/xlink" xmlns="http://www.w3.org/2000/svg"><clipPath id="p.0"><path d="m0 0l377.95276 0l0 377.95276l-377.95276 0l0 -377.95276z" clip-rule="nonzero"/></clipPath><g clip-path="url(#p.0)"><path fill="#000000" fill-opacity="0.0" d="m0 0l377.95276 0l0 377.95276l-377.95276 0z" fill-rule="evenodd"/><path fill="#0090ff" d="m88.7062 124.9394l0 0c0 -30.153877 22.681885 -54.598427 50.661415 -54.598427l0 0c13.436249 0 26.322174 5.7523193 35.82303 15.9915085c9.5008545 10.239189 14.838394 24.12651 14.838394 38.60692l0 0c0 30.153877 -22.6819 54.598427 -50.661423 54.598427l0 0c-27.97953 0 -50.661415 -24.44455 -50.661415 -54.598427z" fill-rule="evenodd"/><path fill="#16c34a" d="m59.956406 332.17847l176.7417 -286.42517l132.17168 286.42517z" fill-rule="evenodd"/><path fill="#16c34a" d="m9.083989 332.20023l100.35746 -237.07086l80.58742 237.07086z" fill-rule="evenodd"/></g></svg>